# xmcd
#
# Track frame offsets: 
#        182
#        11042
#        33575
#        44755
#        47305
#        51882
#        69405
#        79412
#        96915
#        101745
#        112615
#        116230
#        132277
#        147000
#        157087
#        167737
#        179807
#        186237
#        195542
#        202072
#        219200
#        228677
#        233850
#        242700
#        255900
#        268992
#        277017
#        283667
#
# Disc length: 3905 seconds
#
# Revision: 9
# Processed by: cddbd v1.5.2PL0 Copyright (c) Steve Scherf et al.
# Submitted via: ExactAudioCopy v0.99pb5
#
DISCID=aa0f3f1c
DTITLE=Vivaldi, Bach - Gloria · Magnificat
DYEAR=1978
DGENRE=Classical
TTITLE0=Antonio Vivaldi - Gloria in D major, RV 589 - I Gloria in exce
TTITLE0=lsis
TTITLE1=Antonio Vivaldi - Gloria in D major, RV 589 - II Et in terra p
TTITLE1=ax
TTITLE2=Antonio Vivaldi - Gloria in D major, RV 589 - III Laudamus te
TTITLE3=Antonio Vivaldi - Gloria in D major, RV 589 - IV Gratias agimu
TTITLE3=s tibi
TTITLE4=Antonio Vivaldi - Gloria in D major, RV 589 - V Propter magnam
TTITLE4=gloriam
TTITLE5=Antonio Vivaldi - Gloria in D major, RV 589 - VI Domine Deus
TTITLE6=Antonio Vivaldi - Gloria in D major, RV 589 - VII Domine Fili 
TTITLE6=unigenite
TTITLE7=Antonio Vivaldi - Gloria in D major, RV 589 - VIII Domine Deus
TTITLE7=, Agnus Dei
TTITLE8=Antonio Vivaldi - Gloria in D major, RV 589 - IX Qui tollis
TTITLE9=Antonio Vivaldi - Gloria in D major, RV 589 - X Qui sedes
TTITLE10=Antonio Vivaldi - Gloria in D major, RV 589 - XI Quoniam to s
TTITLE10=olus Sanctus
TTITLE11=Antonio Vivaldi - Gloria in D major, RV 589 - XII Cum Sancto 
TTITLE11=Spiritu
TTITLE12=Johann Sabastian Bach - Magnificat in E flat major, BWV 243a 
TTITLE12=I Magnificat
TTITLE13=Johann Sabastian Bach - Magnificat in E flat major, BWV 243a 
TTITLE13=II Et exsultavit spiritus meus
TTITLE14=Johann Sabastian Bach - Magnificat in E flat major, BWV 243a 
TTITLE14=A Vom Himmel hoch da komm' ich her
TTITLE15=Johann Sabastian Bach - Magnificat in E flat major, BWV 243a 
TTITLE15=III Quia respexit humilitatem
TTITLE16=Johann Sabastian Bach - Magnificat in E flat major, BWV 243a 
TTITLE16=IV Omnes generationes
TTITLE17=Johann Sabastian Bach - Magnificat in E flat major, BWV 243a 
TTITLE17=V Quia fecit mihi magna
TTITLE18=Johann Sabastian Bach - Magnificat in E flat major, BWV 243a 
TTITLE18=B Freut euch und jubiliert
TTITLE19=Johann Sabastian Bach - Magnificat in E flat major, BWV 243a 
TTITLE19=VI Et misericordia
TTITLE20=Johann Sabastian Bach - Magnificat in E flat major, BWV 243a 
TTITLE20=VII Fecit potentiam
TTITLE21=Johann Sabastian Bach - Magnificat in E flat major, BWV 243a 
TTITLE21=C Gloria in excelsis Deo
TTITLE22=Johann Sabastian Bach - Magnificat in E flat major, BWV 243a 
TTITLE22=VIII Deposuit potentes
TTITLE23=Johann Sabastian Bach - Magnificat in E flat major, BWV 243a 
TTITLE23=IX Esurientes implevit bonis
TTITLE24=Johann Sabastian Bach - Magnificat in E flat major, BWV 243a 
TTITLE24=D Virga Jesse floruit
TTITLE25=Johann Sabastian Bach - Magnificat in E flat major, BWV 243a 
TTITLE25=X Suscepit Israel
TTITLE26=Johann Sabastian Bach - Magnificat in E flat major, BWV 243a 
TTITLE26=XI Sicut locutus est
TTITLE27=Johann Sabastian Bach - Magnificat in E flat major, BWV 243a 
TTITLE27=XII Gloria Patri
EXTD=
EXTT0=
EXTT1=
EXTT2=
EXTT3=
EXTT4=
EXTT5=
EXTT6=
EXTT7=
EXTT8=
EXTT9=
EXTT10=
EXTT11=
EXTT12=
EXTT13=
EXTT14=
EXTT15=
EXTT16=
EXTT17=
EXTT18=
EXTT19=
EXTT20=
EXTT21=
EXTT22=
EXTT23=
EXTT24=
EXTT25=
EXTT26=
EXTT27=
PLAYORDER=
